<svg width="24" height="24" viewBox="0 0 24 24" fill="none" xmlns="http://www.w3.org/2000/svg">
<mask id="mask0_738_13" style="mask-type:alpha" maskUnits="userSpaceOnUse" x="1" y="1" width="22" height="22">
<path fill-rule="evenodd" clip-rule="evenodd" d="M12 1C5.92 1 1 5.92 1 12C1 18.07 5.92 23 12 23C18.07 23 23 18.07 23 12C23 5.92 18.07 1 12 1ZM18.6288 7.37535C19.1237 7.86331 19.1237 8.65155 18.6288 9.15202L18.5908 9.127L10.9769 16.634C10.482 17.122 9.68253 17.122 9.18763 16.634L5.38069 12.8805C4.8731 12.3926 4.8731 11.6043 5.38069 11.1164C5.87559 10.6159 6.67505 10.6159 7.18264 11.1164L10.1013 13.9941L16.8269 7.37535C17.3218 6.87488 18.1212 6.87488 18.6288 7.37535Z" fill="black"/>
</mask>
<g mask="url(#mask0_738_13)">
<path fill-rule="evenodd" clip-rule="evenodd" d="M12 1C5.92 1 1 5.92 1 12C1 18.07 5.92 23 12 23C18.07 23 23 18.07 23 12C23 5.92 18.07 1 12 1Z" fill="black"/>
</g>
</svg>
