<svg width="24" height="24" viewBox="0 0 24 24" fill="none" xmlns="http://www.w3.org/2000/svg">
<path d="M8.99995 8.00016V5.20016C8.99995 4.00016 9.01995 3.71016 9.09995 3.54016C9.18995 3.35016 9.33995 3.19016 9.52995 3.10016C9.68995 3.01016 9.97995 2.99016 11.18 2.99016H18.78C19.97 2.99016 20.26 3.01016 20.43 3.09016C20.61 3.18016 20.77 3.33016 20.86 3.52016C20.94 3.68016 20.9599 3.97016 20.9599 5.17016V12.7702C20.9599 13.9602 20.93 14.2502 20.85 14.4202C20.75 14.6002 20.6 14.7602 20.41 14.8502C20.24 14.9302 19.95 14.9502 18.75 14.9502H15.95C15.39 14.9502 14.95 15.3902 14.95 15.9502C14.95 16.5002 15.39 16.9502 15.95 16.9502H18.75C20.35 16.9502 20.7299 16.9102 21.3099 16.6202C21.8699 16.3302 22.33 15.8702 22.62 15.3002C22.91 14.7102 22.94 14.3302 22.94 12.7302V5.13016C22.94 3.52016 22.9 3.14016 22.61 2.56016C22.32 1.99016 21.86 1.53016 21.29 1.24016C20.7 0.940156 20.3199 0.910156 18.7199 0.910156H11.12C9.50995 0.910156 9.12995 0.940156 8.54995 1.23016C7.97995 1.51016 7.51995 1.97016 7.22995 2.54016C6.92995 3.12016 6.89995 3.50016 6.89995 5.10016V7.90016C6.89995 8.45016 7.33995 8.90016 7.89995 8.90016C8.44995 8.90016 8.89995 8.45016 8.89995 7.90016L8.99995 8.00016ZM5.19995 23.0002H12.8C14.4 23.0002 14.78 22.9602 15.36 22.6702C15.92 22.3802 16.38 21.9202 16.67 21.3502C16.96 20.7602 16.99 20.3802 16.99 18.7802V11.1802C16.99 9.57016 16.95 9.19016 16.66 8.61016C16.37 8.04016 15.91 7.58016 15.34 7.29016C14.75 6.99016 14.37 6.96016 12.77 6.96016H5.16995C3.55995 6.96016 3.17995 6.99016 2.59995 7.28016C2.02995 7.56016 1.56995 8.02016 1.27995 8.59016C0.979951 9.17016 0.949951 9.55016 0.949951 11.1502V18.7502C0.949951 20.3502 0.979951 20.7302 1.26995 21.3102C1.54995 21.8702 2.00995 22.3302 2.57995 22.6202C3.15995 22.9102 3.53995 22.9402 5.13995 22.9402L5.19995 23.0002ZM5.19995 21.0002C3.99995 21.0002 3.70995 20.9702 3.53995 20.8902C3.34995 20.7902 3.18995 20.6402 3.09995 20.4502C3.00995 20.2802 2.98995 19.9902 2.98995 18.7902V11.1902C2.98995 9.99016 3.00995 9.70016 3.08995 9.53016C3.17995 9.34016 3.32995 9.18016 3.51995 9.09016C3.67995 9.00016 3.96995 8.98016 5.16995 8.98016H12.77C13.96 8.98016 14.25 9.00016 14.42 9.08016C14.6 9.17016 14.76 9.32016 14.85 9.51016C14.93 9.67016 14.95 9.96016 14.95 11.1602V18.7602C14.95 19.9502 14.92 20.2402 14.84 20.4102C14.74 20.5902 14.59 20.7502 14.4 20.8402C14.23 20.9202 13.94 20.9402 12.74 20.9402H5.13995L5.19995 21.0002Z" fill="black"/>
</svg>
